<svg xmlns="http://www.w3.org/2000/svg" viewBox="0 0 854 836" width="100%" style="max-width: 48px;">
				<path style="opacity:.075" fill="#ecf4e5" d="M-.5-.5h2c-.333 1-1 1.667-2 2v-2Z"></path>
				<path style="opacity:.075" fill="#e3eadf" d="M851.5-.5h2v2c-1.333 0-2-.667-2-2Z"></path>
				<path style="opacity:.999" fill="#566372" d="M249.5 387.5c-2.235-.295-4.235.039-6 1-66.098 5.036-119.264-18.631-159.5-71A1001.745 1001.745 0 0 1 72.5 298c-9.686-17.447-15.686-36.614-18-57.5.302-2.559-.032-4.893-1-7-4.452-58.417 15.215-107.584 59-147.5 50.56-40.263 106.893-50.93 169-32 64.578 25.25 102.745 72.084 114.5 140.5 6.653 71.804-19.513 127.971-78.5 168.5-20.902 13.023-43.568 21.19-68 24.5Z"></path>
				<path style="opacity:.999" fill="#56c2be" d="M629.5 388.5h-34c-53.582-5.771-96.082-31.437-127.5-77-31.364-50.015-36.197-103.182-14.5-159.5 22.852-54.053 63.186-88.386 121-103 66.249-12.471 122.416 5.696 168.5 54.5 44.449 55.464 53.782 116.464 28 183-28.074 58.115-73.741 92.448-137 103-1.356-.88-2.856-1.214-4.5-1Z"></path>
				<path style="opacity:1" fill="#fefefe" d="M604.5 93.5c7.659 25.448 18.159 49.782 31.5 73a568.788 568.788 0 0 1 39 68c15.367 35.298 9.533 66.465-17.5 93.5-36.488 24.678-70.322 21.512-101.5-9.5-18.531-25.842-21.531-53.509-9-83a463.587 463.587 0 0 1 29-50c16.058-28.672 25.558-59.339 28.5-92Z"></path>
				<path style="opacity:1" fill="#fdfdfe" d="M223.5 97.5c4.851-.716 9.018.618 12.5 4a1039.774 1039.774 0 0 0 14.5 42 583.664 583.664 0 0 1 26-8 3678.347 3678.347 0 0 1 13.5 46c3.713 36.079-10.121 62.912-41.5 80.5 7.841 16.094 20.841 23.094 39 21 17.338 2.659 30.671 11.326 40 26l-19 13.5c-4.257-5.756-9.591-10.256-16-13.5a435.489 435.489 0 0 0-31-5c-11.025-3.09-19.859-9.257-26.5-18.5a191.884 191.884 0 0 1-9.5-16c-33.745 1.025-58.912-12.975-75.5-42a1827.375 1827.375 0 0 1-15.5-45.5c.405-.945 1.072-1.612 2-2a294.883 294.883 0 0 0 25.5-8.5 245.962 245.962 0 0 0-11-38c-1.593-9.412 2.407-14.412 12-15 4.003-.224 7.336 1.11 10 4a1228.406 1228.406 0 0 0 13.5 40.5 541.19 541.19 0 0 0 40-11.5 2062.839 2062.839 0 0 1-13-43 10.413 10.413 0 0 1 1.5-5c2.637-2.391 5.47-4.391 8.5-6Z"></path>
				<path style="opacity:.141" fill="#a5b0b8" d="M53.5 233.5c.968 2.107 1.302 4.441 1 7a19.62 19.62 0 0 1-2-3.5c.12-1.145.452-2.312 1-3.5Z"></path>
				<path style="opacity:.2" fill="#9fa9b1" d="M249.5 387.5a19.602 19.602 0 0 1-3.5 2c-.951-.384-1.784-.717-2.5-1 1.765-.961 3.765-1.295 6-1Z"></path>
				<path style="opacity:.149" fill="#92d2cf" d="M595.5 388.5h34a61.16 61.16 0 0 1-5.5 2 7420.765 7420.765 0 0 1-28.5-2Z"></path>
				<path style="opacity:.999" fill="#c6da59" d="M191.5 773.5c-.709-.904-1.709-1.237-3-1-31.097-6.391-58.764-20.724-83-43-39.118-39.296-56.452-87.296-52-144 .934-1.068 1.268-2.401 1-4 7.269-50.52 31.935-90.687 74-120.5 57.626-35.634 116.959-38.634 178-9 66.217 39.596 96.051 98.096 89.5 175.5-10.604 62.08-44.104 106.913-100.5 134.5-14.573 5.856-28.406 10.356-41.5 13.5a3.943 3.943 0 0 0-2-1c-20.449 3.571-40.616 3.237-60.5-1Z"></path>
				<path style="opacity:.999" fill="#08476d" d="M481.5 716.5c.073-1.527-.594-2.527-2-3-30.002-37.305-42.668-79.971-38-128 .951-1.419 1.284-3.085 1-5 9.21-56.756 38.21-99.256 87-127.5 63.528-31.465 124.862-27.798 184 11 50.301 38.157 74.134 88.991 71.5 152.5-8.783 73.603-47.45 124.27-116 152-61.122 18.047-117.289 7.213-168.5-32.5a522.556 522.556 0 0 1-19-19.5Z"></path>
				<path style="opacity:1" fill="#fbfcfd" d="M569.5 495.5c52.158-1.651 84.658 22.682 97.5 73 1.719 14.701.219 29.034-4.5 43a17.303 17.303 0 0 0 4 4.5 1437.557 1437.557 0 0 1 64.5 48.5c8.221 13.009 6.721 24.842-4.5 35.5-10.043 5.896-20.043 5.896-30 0a4437.062 4437.062 0 0 0-64-47.5c-35.687 23.112-71.02 22.612-106-1.5-29.719-26.499-39.219-58.999-28.5-97.5 13.292-32.471 37.126-51.804 71.5-58Z"></path>
				<path style="opacity:1" fill="#fefefe" d="M327.5 581.5c-7.148.992-14.481 1.325-22 1v108h-61v-57a552.805 552.805 0 0 0-47-1v58h-59v-108h-23a2053.174 2053.174 0 0 1 36.5-30c.5-10.995.667-21.995.5-33h19c-.166 5.676.001 11.343.5 17a862.088 862.088 0 0 1 47.5-38 414957.75 414957.75 0 0 0 108 83Z"></path>
				<path style="opacity:1" fill="#06466c" d="M568.5 515.5c40.921-3.143 67.088 14.857 78.5 54 3.732 34.046-9.435 58.879-39.5 74.5-39.2 13.049-68.7 1.549-88.5-34.5-13.529-41.094-1.029-71.26 37.5-90.5a119.8 119.8 0 0 0 12-3.5Z"></path>
				<path style="opacity:.102" fill="#8b9fb0" d="M442.5 580.5c.284 1.915-.049 3.581-1 5-.438.065-.772-.101-1-.5a36.354 36.354 0 0 1 2-4.5Z"></path>
				<path style="opacity:1" fill="#f6f9e5" d="M115.5 582.5h23v108a2863.174 2863.174 0 0 1-1-107c-8.09.333-15.423-.001-22-1Z"></path>
				<path style="opacity:1" fill="#d3e281" d="M327.5 581.5c.543.06.876.393 1 1a121.862 121.862 0 0 1-22 1c.332 35.837-.002 71.504-1 107v-108c7.519.325 14.852-.008 22-1Z"></path>
				<path style="opacity:.149" fill="#dce3b4" d="M54.5 581.5c.268 1.599-.066 2.932-1 4-.438.065-.772-.101-1-.5a19.62 19.62 0 0 1 2-3.5Z"></path>
				<path style="opacity:1" fill="#f8f9fa" d="M544.5 609.5a12.93 12.93 0 0 1 5 .5c15.705 14.927 33.371 17.594 53 8 4.207-2.89 8.373-5.724 12.5-8.5 8.861 3.296 9.695 8.13 2.5 14.5-24.911 18.091-49.578 17.758-74-1-4.205-4.911-3.871-9.411 1-13.5Z"></path>
				<path style="opacity:1" fill="#0e496e" d="M654.5 624.5c3.294-.241 6.294.592 9 2.5a869.941 869.941 0 0 1 39.5 30.5c.947 7.385-2.22 10.219-9.5 8.5L652 634.5c-1.139-3.921-.305-7.254 2.5-10Z"></path>
				<path style="opacity:1" fill="#d9e694" d="M244.5 633.5h-46a813 813 0 0 1-1 57v-58c15.842-.33 31.509.004 47 1Z"></path>
				<path style="opacity:.008" fill="#abb7be" d="M479.5 713.5c1.406.473 2.073 1.473 2 3-1.406-.473-2.073-1.473-2-3Z"></path>
				<path style="opacity:.129" fill="#d8e0b6" d="M188.5 772.5c1.291-.237 2.291.096 3 1-1.395 1.315-2.395.981-3-1Z"></path>
				<path style="opacity:.035" fill="#e8f1e9" d="M853.5 833.5v1c-.67-.481-.67-.815 0-1Z"></path>
				<path style="opacity:.569" fill="#f2f8ed" d="M-.5 833.5c1 .333 1.667 1 2 2h-2v-2Z"></path>
			</svg>